<?xml version="1.0" standalone="no"?>
<!DOCTYPE svg PUBLIC "-//W3C//DTD SVG 20010904//EN"
 "http://www.w3.org/TR/2001/REC-SVG-20010904/DTD/svg10.dtd">
<svg version="1.0" xmlns="http://www.w3.org/2000/svg"
 width="400.000000pt" height="367.000000pt" viewBox="0 0 400.000000 367.000000"
 preserveAspectRatio="xMidYMid meet">

<g transform="translate(0.000000,367.000000) scale(0.100000,-0.100000)"
fill="#000000" stroke="none">
<path d="M1735 3051 c-182 -29 -304 -111 -416 -278 -29 -43 -87 -114 -129
-159 -118 -123 -159 -233 -160 -420 0 -194 81 -399 242 -610 76 -101 138 -199
138 -219 0 -3 -17 -5 -38 -5 -63 0 -191 -37 -277 -80 -82 -41 -131 -80 -181
-145 -25 -34 -28 -44 -26 -106 l2 -69 -38 -28 c-21 -15 -69 -45 -107 -67 -100
-59 -150 -108 -184 -178 -46 -96 -52 -134 -61 -387 -4 -129 -11 -250 -15 -267
-7 -29 -5 -33 12 -33 28 0 33 36 43 310 6 163 13 240 25 280 19 61 45 115 72
146 14 16 182 133 239 167 8 4 18 -12 29 -45 81 -248 294 -470 579 -603 127
-60 157 -57 36 3 -348 172 -558 439 -595 755 -6 51 -3 63 19 102 63 107 268
215 408 215 l58 0 0 -49 c0 -60 -23 -184 -43 -231 l-14 -35 -13 45 c-27 96
-28 99 -29 45 -1 -56 15 -125 29 -125 14 0 46 51 67 110 29 77 43 180 43 309
0 82 3 111 13 111 6 0 -14 15 -46 32 -119 65 -189 167 -188 276 0 109 47 172
128 172 62 0 116 -33 155 -92 l31 -49 23 22 c12 11 28 34 34 50 12 28 15 29
75 29 l63 0 4 -74 c4 -83 20 -114 79 -154 33 -22 39 -23 226 -20 175 3 194 5
219 24 56 41 67 67 72 161 3 49 10 91 16 95 6 4 27 8 47 8 l36 0 5 -62 c3 -37
19 -96 37 -141 17 -43 31 -88 31 -100 0 -37 -36 -83 -81 -105 -45 -22 -44 -26
1 -22 60 5 119 62 123 119 2 28 5 31 54 37 85 10 87 8 80 -99 -9 -131 -48
-254 -111 -347 -47 -70 -207 -231 -246 -248 -53 -22 -252 -18 -355 8 -137 34
-238 91 -332 187 -46 46 -83 81 -83 78 0 -38 94 -150 277 -332 77 -76 176
-127 293 -151 102 -21 135 -47 145 -115 14 -93 -39 -183 -120 -206 -106 -29
-265 -4 -405 65 -80 40 -109 61 -185 138 -59 60 -107 120 -140 176 -33 57 -51
79 -53 67 -5 -26 81 -164 151 -242 184 -203 502 -314 669 -232 115 56 138 161
78 346 -15 47 -31 101 -35 118 l-7 33 42 0 c55 0 100 20 153 69 34 32 47 38
54 29 21 -27 52 -96 78 -178 23 -73 26 -96 21 -165 -11 -157 -66 -298 -162
-411 -64 -75 -59 -85 8 -16 102 105 173 259 185 405 l6 69 31 -6 c68 -14 186
-79 232 -128 75 -80 162 -298 208 -518 18 -81 26 -106 40 -108 15 -3 17 2 11
45 -20 136 -108 415 -162 516 -54 99 -165 181 -323 237 -33 12 -37 18 -68 114
-18 55 -44 117 -57 136 -13 19 -24 40 -24 47 -1 6 22 38 49 70 59 68 121 191
144 284 9 37 16 108 16 165 0 98 1 101 26 114 45 25 54 57 54 195 0 70 -4 134
-9 144 -6 10 -7 58 -4 109 l6 91 39 -1 c84 -1 177 103 186 206 2 30 -1 71 -8
92 -17 52 -89 125 -150 154 -50 24 -51 24 -45 61 9 51 -9 110 -43 143 -52 48
-104 58 -352 61 -179 2 -235 6 -275 19 -122 41 -302 62 -400 47z m392 -699
c96 -96 212 -160 334 -186 39 -9 43 -40 8 -77 -16 -17 -29 -37 -29 -43 0 -7
-23 -16 -52 -22 -52 -9 -54 -8 -73 20 -46 68 -58 71 -265 74 -220 4 -244 -2
-286 -74 -26 -44 -26 -44 -84 -44 l-58 0 -6 58 c-4 31 -9 76 -12 98 -6 39 -4
43 30 63 44 27 111 103 137 154 l20 38 43 -45 c50 -51 108 -73 150 -56 28 10
66 64 66 93 0 9 2 17 5 17 2 0 35 -31 72 -68z m603 -187 l0 -45 -37 0 c-21 0
-49 3 -62 7 -21 5 -16 8 30 23 46 14 54 19 51 38 -2 12 2 22 7 22 6 0 11 -20
11 -45z m-497 -79 c61 -26 72 -47 75 -158 4 -109 -5 -147 -46 -178 -22 -18
-41 -20 -209 -20 -256 0 -273 11 -273 180 0 99 13 140 53 162 41 24 351 35
400 14z m493 -10 c3 -8 -4 -72 -16 -142 -11 -71 -23 -144 -26 -161 -5 -33 -5
-33 -62 -33 -68 0 -73 3 -101 58 -20 39 -20 42 -3 42 27 0 42 20 42 57 0 31 2
33 20 23 16 -9 20 -8 20 4 0 24 -46 49 -83 44 -32 -3 -33 -3 -35 39 -1 35 3
46 25 62 22 18 40 21 120 21 71 0 95 -3 99 -14z m53 -184 c1 -71 -17 -125 -48
-142 -19 -10 -21 -8 -21 19 0 27 29 182 47 248 7 26 8 26 14 -17 4 -25 8 -73
8 -108z"/>
<path d="M1906 2234 c-19 -11 -25 -19 -18 -26 15 -15 281 -81 298 -74 10 4 14
16 12 38 -5 51 -51 72 -168 75 -73 3 -102 0 -124 -13z"/>
<path d="M1973 2000 c-18 -4 -40 -13 -48 -20 -20 -16 -20 -41 0 -34 12 5 15
-2 15 -28 0 -41 15 -58 50 -58 35 0 50 17 50 57 0 38 1 38 40 18 32 -16 38 -8
20 24 -7 15 -82 55 -93 50 -1 -1 -17 -5 -34 -9z"/>
<path d="M1320 1880 c-19 -19 -28 -70 -12 -70 4 0 12 10 17 23 6 13 21 23 37
25 30 4 33 -3 41 -91 4 -45 28 -87 50 -87 5 0 6 8 1 18 -4 9 -8 50 -8 90 -1
65 -4 76 -25 93 -30 25 -76 24 -101 -1z"/>
<path d="M2090 1510 c0 -47 97 -112 169 -113 48 -1 107 25 97 42 -3 5 -32 11
-63 13 -34 3 -87 19 -127 37 -78 35 -76 35 -76 21z"/>
<path d="M1147 810 c20 -120 122 -276 241 -373 69 -56 160 -113 167 -105 3 2
-27 31 -66 64 -92 77 -211 219 -276 330 -74 126 -73 124 -66 84z"/>
<path d="M2260 310 c0 -6 7 -27 16 -48 10 -23 17 -70 18 -123 2 -102 19 -139
65 -139 30 0 61 27 61 53 0 35 -42 107 -65 113 -18 4 -29 23 -50 80 -15 41
-31 74 -36 74 -5 0 -9 -5 -9 -10z"/>
<path d="M1840 244 c-11 -36 -20 -74 -20 -84 0 -10 -11 -25 -24 -33 -20 -14
-46 -78 -46 -116 0 -7 25 -11 60 -11 l60 0 0 45 c0 25 -6 56 -14 68 -14 22
-10 58 19 170 5 17 3 27 -4 27 -5 0 -19 -30 -31 -66z"/>
<path d="M2943 63 c-7 -2 -13 -18 -13 -34 0 -26 3 -29 34 -29 30 0 34 2 29 23
-10 40 -24 51 -50 40z"/>
</g>
</svg>
