<svg xmlns="http://www.w3.org/2000/svg" xmlns:xlink="http://www.w3.org/1999/xlink" width="500" zoomAndPan="magnify" viewBox="0 0 375 374.999991" height="500" preserveAspectRatio="xMidYMid meet" version="1.0"><defs><clipPath id="2291104c99"><path d="M 45 73 L 295 73 L 295 359.183594 L 45 359.183594 Z M 45 73 " clip-rule="nonzero"/></clipPath><clipPath id="f56b9532e0"><path d="M 211 329 L 227 329 L 227 359.183594 L 211 359.183594 Z M 211 329 " clip-rule="nonzero"/></clipPath><clipPath id="28e7eca5d0"><path d="M 164 330 L 177 330 L 177 359.183594 L 164 359.183594 Z M 164 330 " clip-rule="nonzero"/></clipPath><clipPath id="d7feeb6084"><path d="M 274 352 L 281 352 L 281 359.183594 L 274 359.183594 Z M 274 352 " clip-rule="nonzero"/></clipPath></defs><g clip-path="url(#2291104c99)"><path fill="#000000" d="M 162.6875 73.617188 C 145.648438 76.332031 134.222656 84.007812 123.738281 99.636719 C 121.019531 103.664062 115.589844 110.308594 111.65625 114.519531 C 100.609375 126.03125 96.769531 136.328125 96.675781 153.832031 C 96.675781 171.988281 104.261719 191.175781 119.335938 210.925781 C 126.453125 220.378906 132.257812 229.550781 132.257812 231.421875 C 132.257812 231.703125 130.664062 231.890625 128.699219 231.890625 C 122.800781 231.890625 110.816406 235.351562 102.761719 239.378906 C 95.085938 243.214844 90.496094 246.867188 85.816406 252.949219 C 83.476562 256.132812 83.195312 257.066406 83.382812 262.871094 L 83.570312 269.328125 L 80.011719 271.949219 C 78.042969 273.355469 73.550781 276.160156 69.992188 278.21875 C 60.628906 283.742188 55.945312 288.328125 52.765625 294.878906 C 48.457031 303.867188 47.894531 307.421875 47.050781 331.101562 C 46.675781 343.175781 46.023438 354.503906 45.648438 356.09375 C 44.992188 358.808594 45.179688 359.183594 46.769531 359.183594 C 49.394531 359.183594 49.859375 355.8125 50.796875 330.167969 C 51.359375 314.910156 52.015625 307.703125 53.136719 303.960938 C 54.917969 298.25 57.351562 293.195312 59.878906 290.292969 C 61.191406 288.796875 76.921875 277.847656 82.257812 274.664062 C 83.007812 274.289062 83.941406 275.789062 84.972656 278.875 C 92.558594 302.085938 112.5 322.867188 139.1875 335.316406 C 151.078125 340.929688 153.886719 340.648438 142.558594 335.035156 C 109.972656 318.933594 90.308594 293.945312 86.847656 264.367188 C 86.285156 259.59375 86.566406 258.472656 88.625 254.820312 C 94.523438 244.804688 113.71875 234.699219 126.828125 234.699219 L 132.257812 234.699219 L 132.257812 239.285156 C 132.257812 244.898438 130.105469 256.507812 128.230469 260.90625 L 126.921875 264.179688 L 125.703125 259.96875 C 123.175781 250.984375 123.082031 250.703125 122.988281 255.757812 C 122.894531 261 124.390625 267.457031 125.703125 267.457031 C 127.015625 267.457031 130.011719 262.683594 131.976562 257.160156 C 134.691406 249.953125 136.003906 240.3125 136.003906 228.238281 C 136.003906 220.566406 136.285156 217.851562 137.21875 217.851562 C 137.78125 217.851562 135.910156 216.445312 132.914062 214.855469 C 121.769531 208.773438 115.214844 199.226562 115.308594 189.023438 C 115.308594 178.820312 119.710938 172.925781 127.292969 172.925781 C 133.101562 172.925781 138.15625 176.011719 141.808594 181.535156 L 144.710938 186.121094 L 146.863281 184.0625 C 147.988281 183.03125 149.484375 180.878906 150.046875 179.382812 C 151.171875 176.761719 151.453125 176.667969 157.070312 176.667969 L 162.96875 176.667969 L 163.34375 183.59375 C 163.71875 191.363281 165.214844 194.265625 170.738281 198.007812 C 173.828125 200.066406 174.390625 200.160156 191.902344 199.878906 C 208.285156 199.597656 210.066406 199.414062 212.40625 197.632812 C 217.648438 193.796875 218.679688 191.363281 219.148438 182.566406 C 219.429688 177.980469 220.082031 174.046875 220.644531 173.671875 C 221.207031 173.296875 223.171875 172.925781 225.046875 172.925781 L 228.417969 172.925781 L 228.886719 178.726562 C 229.167969 182.191406 230.664062 187.710938 232.351562 191.925781 C 233.941406 195.949219 235.253906 200.160156 235.253906 201.285156 C 235.253906 204.746094 231.882812 209.050781 227.667969 211.113281 C 223.453125 213.171875 223.546875 213.546875 227.761719 213.171875 C 233.378906 212.703125 238.902344 207.367188 239.277344 202.03125 C 239.464844 199.414062 239.746094 199.132812 244.335938 198.570312 C 252.292969 197.632812 252.480469 197.820312 251.824219 207.835938 C 250.980469 220.097656 247.332031 231.609375 241.433594 240.3125 C 237.03125 246.867188 222.050781 261.933594 218.398438 263.527344 C 213.4375 265.585938 194.804688 265.210938 185.160156 262.777344 C 172.332031 259.59375 162.875 254.261719 154.074219 245.273438 C 149.765625 240.96875 146.300781 237.691406 146.300781 237.972656 C 146.300781 241.53125 155.101562 252.011719 172.238281 269.046875 C 179.449219 276.160156 188.71875 280.933594 199.671875 283.179688 C 209.222656 285.148438 212.3125 287.582031 213.25 293.945312 C 214.558594 302.648438 209.597656 311.074219 202.011719 313.226562 C 192.089844 315.941406 177.199219 313.601562 164.09375 307.140625 C 156.601562 303.398438 153.886719 301.433594 146.769531 294.226562 C 141.246094 288.609375 136.75 282.992188 133.660156 277.753906 C 130.570312 272.417969 128.886719 270.359375 128.699219 271.480469 C 128.230469 273.914062 136.285156 286.832031 142.835938 294.132812 C 160.066406 313.132812 189.839844 323.519531 205.476562 315.847656 C 216.246094 310.605469 218.398438 300.777344 212.78125 283.460938 C 211.375 279.0625 209.878906 274.007812 209.503906 272.417969 L 208.847656 269.328125 L 212.78125 269.328125 C 217.929688 269.328125 222.144531 267.457031 227.105469 262.871094 C 230.289062 259.875 231.507812 259.3125 232.164062 260.15625 C 234.128906 262.683594 237.03125 269.140625 239.464844 276.816406 C 241.621094 283.648438 241.898438 285.800781 241.433594 292.261719 C 240.402344 306.953125 235.253906 320.152344 226.261719 330.726562 C 220.269531 337.75 220.738281 338.683594 227.011719 332.226562 C 236.5625 322.398438 243.210938 307.984375 244.335938 294.320312 L 244.894531 287.859375 L 247.800781 288.421875 C 254.164062 289.734375 265.214844 295.816406 269.523438 300.402344 C 276.542969 307.890625 284.691406 328.292969 288.996094 348.886719 C 290.683594 356.46875 291.429688 358.808594 292.742188 358.996094 C 294.148438 359.277344 294.332031 358.808594 293.773438 354.78125 C 291.898438 342.054688 283.660156 315.941406 278.605469 306.488281 C 273.546875 297.222656 263.15625 289.546875 248.359375 284.304688 C 245.269531 283.179688 244.894531 282.621094 241.992188 273.632812 C 240.308594 268.488281 237.875 262.683594 236.65625 260.90625 C 235.441406 259.125 234.410156 257.160156 234.410156 256.507812 C 234.316406 255.945312 236.46875 252.949219 238.996094 249.953125 C 244.523438 243.589844 250.328125 232.078125 252.480469 223.371094 C 253.324219 219.910156 253.980469 213.265625 253.980469 207.929688 C 253.980469 198.757812 254.070312 198.476562 256.414062 197.257812 C 260.625 194.917969 261.46875 191.925781 261.46875 179.007812 C 261.46875 172.457031 261.09375 166.464844 260.625 165.53125 C 260.066406 164.59375 259.972656 160.101562 260.25 155.328125 L 260.8125 146.8125 L 264.464844 146.90625 C 272.332031 146.996094 281.039062 137.265625 281.882812 127.625 C 282.066406 124.816406 281.789062 120.976562 281.132812 119.011719 C 279.539062 114.144531 272.796875 107.3125 267.085938 104.597656 C 262.40625 102.351562 262.3125 102.351562 262.875 98.890625 C 263.714844 94.117188 262.03125 88.59375 258.847656 85.503906 C 253.980469 81.011719 249.109375 80.078125 225.890625 79.796875 C 209.128906 79.609375 203.886719 79.234375 200.140625 78.015625 C 188.71875 74.179688 171.863281 72.214844 162.6875 73.617188 Z M 199.390625 139.042969 C 208.378906 148.027344 219.242188 154.019531 230.664062 156.453125 C 234.316406 157.292969 234.691406 160.195312 231.414062 163.660156 C 229.914062 165.25 228.699219 167.121094 228.699219 167.683594 C 228.699219 168.339844 226.542969 169.179688 223.828125 169.742188 C 218.960938 170.585938 218.773438 170.492188 216.992188 167.871094 C 212.6875 161.503906 211.5625 161.226562 192.179688 160.945312 C 171.582031 160.570312 169.335938 161.132812 165.402344 167.871094 C 162.96875 171.988281 162.96875 171.988281 157.539062 171.988281 L 152.105469 171.988281 L 151.546875 166.558594 C 151.171875 163.660156 150.703125 159.445312 150.421875 157.386719 C 149.859375 153.738281 150.046875 153.363281 153.230469 151.492188 C 157.351562 148.964844 163.625 141.851562 166.058594 137.078125 L 167.929688 133.519531 L 171.957031 137.730469 C 176.640625 142.503906 182.070312 144.566406 186 142.972656 C 188.625 142.039062 192.179688 136.984375 192.179688 134.269531 C 192.179688 133.425781 192.367188 132.675781 192.648438 132.675781 C 192.835938 132.675781 195.925781 135.578125 199.390625 139.042969 Z M 255.851562 156.542969 L 255.851562 160.757812 L 252.386719 160.757812 C 250.421875 160.757812 247.800781 160.476562 246.582031 160.101562 C 244.617188 159.632812 245.082031 159.351562 249.390625 157.949219 C 253.699219 156.636719 254.445312 156.171875 254.164062 154.390625 C 253.980469 153.269531 254.351562 152.332031 254.820312 152.332031 C 255.382812 152.332031 255.851562 154.203125 255.851562 156.542969 Z M 209.316406 163.9375 C 215.027344 166.371094 216.058594 168.339844 216.339844 178.726562 C 216.714844 188.929688 215.871094 192.484375 212.03125 195.386719 C 209.972656 197.074219 208.191406 197.257812 192.460938 197.257812 C 168.492188 197.257812 166.902344 196.230469 166.902344 180.410156 C 166.902344 171.144531 168.117188 167.308594 171.863281 165.25 C 175.703125 163.003906 204.726562 161.972656 209.316406 163.9375 Z M 255.476562 164.875 C 255.757812 165.625 255.101562 171.613281 253.980469 178.164062 C 252.949219 184.8125 251.824219 191.644531 251.542969 193.234375 C 251.074219 196.324219 251.074219 196.324219 245.738281 196.324219 C 239.371094 196.324219 238.902344 196.042969 236.28125 190.894531 C 234.410156 187.246094 234.410156 186.964844 236 186.964844 C 238.53125 186.964844 239.933594 185.09375 239.933594 181.628906 C 239.933594 178.726562 240.121094 178.539062 241.804688 179.476562 C 243.304688 180.320312 243.679688 180.226562 243.679688 179.101562 C 243.679688 176.855469 239.371094 174.515625 235.90625 174.984375 C 232.910156 175.265625 232.816406 175.265625 232.628906 171.332031 C 232.535156 168.058594 232.910156 167.027344 234.972656 165.53125 C 237.03125 163.84375 238.714844 163.566406 246.207031 163.566406 C 252.855469 163.566406 255.101562 163.84375 255.476562 164.875 Z M 260.4375 182.097656 C 260.53125 188.742188 258.847656 193.796875 255.945312 195.386719 C 254.164062 196.324219 253.980469 196.136719 253.980469 193.609375 C 253.980469 191.082031 256.695312 176.574219 258.378906 170.398438 C 259.035156 167.964844 259.128906 167.964844 259.691406 171.988281 C 260.066406 174.328125 260.4375 178.820312 260.4375 182.097656 Z M 260.4375 182.097656 " fill-opacity="1" fill-rule="nonzero"/></g><path fill="#000000" d="M 178.699219 150.085938 C 176.917969 151.117188 176.359375 151.863281 177.011719 152.519531 C 178.417969 153.925781 203.324219 160.101562 204.914062 159.445312 C 205.851562 159.070312 206.226562 157.949219 206.039062 155.890625 C 205.570312 151.117188 201.265625 149.152344 190.308594 148.871094 C 183.472656 148.589844 180.757812 148.871094 178.699219 150.085938 Z M 178.699219 150.085938 " fill-opacity="1" fill-rule="nonzero"/><path fill="#000000" d="M 184.972656 171.988281 C 183.285156 172.363281 181.226562 173.207031 180.476562 173.859375 C 178.605469 175.359375 178.605469 177.699219 180.476562 177.042969 C 181.601562 176.574219 181.882812 177.230469 181.882812 179.664062 C 181.882812 183.5 183.285156 185.09375 186.5625 185.09375 C 189.839844 185.09375 191.246094 183.5 191.246094 179.757812 C 191.246094 176.199219 191.339844 176.199219 194.992188 178.070312 C 197.988281 179.570312 198.546875 178.820312 196.863281 175.824219 C 196.207031 174.421875 189.183594 170.679688 188.15625 171.144531 C 188.0625 171.238281 186.5625 171.613281 184.972656 171.988281 Z M 184.972656 171.988281 " fill-opacity="1" fill-rule="nonzero"/><path fill="#000000" d="M 123.832031 183.21875 C 122.050781 185 121.207031 189.773438 122.707031 189.773438 C 123.082031 189.773438 123.832031 188.835938 124.296875 187.617188 C 124.859375 186.402344 126.265625 185.464844 127.761719 185.277344 C 130.570312 184.90625 130.851562 185.558594 131.601562 193.796875 C 131.976562 198.007812 134.222656 201.9375 136.285156 201.9375 C 136.75 201.9375 136.84375 201.191406 136.378906 200.253906 C 136.003906 199.414062 135.628906 195.574219 135.628906 191.832031 C 135.535156 185.746094 135.253906 184.71875 133.289062 183.125 C 130.476562 180.785156 126.171875 180.878906 123.832031 183.21875 Z M 123.832031 183.21875 " fill-opacity="1" fill-rule="nonzero"/><path fill="#000000" d="M 195.925781 217.851562 C 195.925781 222.25 205.007812 228.332031 211.75 228.425781 C 216.246094 228.519531 221.769531 226.085938 220.832031 224.496094 C 220.550781 224.027344 217.835938 223.464844 214.933594 223.28125 C 211.75 223 206.789062 221.5 203.042969 219.816406 C 195.738281 216.539062 195.925781 216.539062 195.925781 217.851562 Z M 195.925781 217.851562 " fill-opacity="1" fill-rule="nonzero"/><path fill="#000000" d="M 107.632812 283.367188 C 109.503906 294.601562 119.054688 309.199219 130.199219 318.28125 C 136.65625 323.519531 145.179688 328.855469 145.832031 328.109375 C 146.113281 327.921875 143.304688 325.207031 139.652344 322.117188 C 131.039062 314.910156 119.898438 301.621094 113.8125 291.230469 C 106.882812 279.4375 106.976562 279.625 107.632812 283.367188 Z M 107.632812 283.367188 " fill-opacity="1" fill-rule="nonzero"/><g clip-path="url(#f56b9532e0)"><path fill="#000000" d="M 211.84375 330.167969 C 211.84375 330.726562 212.5 332.695312 213.34375 334.660156 C 214.277344 336.8125 214.933594 341.210938 215.027344 346.171875 C 215.214844 355.71875 216.808594 359.183594 221.113281 359.183594 C 223.921875 359.183594 226.824219 356.65625 226.824219 354.222656 C 226.824219 350.945312 222.894531 344.207031 220.738281 343.644531 C 219.054688 343.269531 218.023438 341.492188 216.058594 336.15625 C 214.652344 332.320312 213.15625 329.230469 212.6875 329.230469 C 212.21875 329.230469 211.84375 329.699219 211.84375 330.167969 Z M 211.84375 330.167969 " fill-opacity="1" fill-rule="nonzero"/></g><g clip-path="url(#28e7eca5d0)"><path fill="#000000" d="M 172.519531 336.34375 C 171.488281 339.714844 170.644531 343.269531 170.644531 344.207031 C 170.644531 345.140625 169.617188 346.546875 168.398438 347.296875 C 166.527344 348.605469 164.09375 354.59375 164.09375 358.152344 C 164.09375 358.808594 166.433594 359.183594 169.710938 359.183594 L 175.328125 359.183594 L 175.328125 354.96875 C 175.328125 352.628906 174.765625 349.730469 174.015625 348.605469 C 172.707031 346.546875 173.082031 343.175781 175.796875 332.695312 C 176.265625 331.101562 176.078125 330.167969 175.421875 330.167969 C 174.953125 330.167969 173.640625 332.976562 172.519531 336.34375 Z M 172.519531 336.34375 " fill-opacity="1" fill-rule="nonzero"/></g><g clip-path="url(#d7feeb6084)"><path fill="#000000" d="M 275.792969 353.285156 C 275.140625 353.472656 274.578125 354.96875 274.578125 356.46875 C 274.578125 358.902344 274.859375 359.183594 277.761719 359.183594 C 280.570312 359.183594 280.945312 358.996094 280.476562 357.027344 C 279.539062 353.285156 278.230469 352.253906 275.792969 353.285156 Z M 275.792969 353.285156 " fill-opacity="1" fill-rule="nonzero"/></g></svg>